<svg width="25" height="24" viewBox="0 0 25 24" fill="none" xmlns="http://www.w3.org/2000/svg">
<g id="share-2">
<path id="Vector" d="M18.6765 8C20.3333 8 21.6765 6.65685 21.6765 5C21.6765 3.34315 20.3333 2 18.6765 2C17.0196 2 15.6765 3.34315 15.6765 5C15.6765 6.65685 17.0196 8 18.6765 8Z" stroke="white" stroke-width="2" stroke-linecap="round" stroke-linejoin="round"/>
<path id="Vector_2" d="M6.67648 15C8.33334 15 9.67648 13.6569 9.67648 12C9.67648 10.3431 8.33334 9 6.67648 9C5.01963 9 3.67648 10.3431 3.67648 12C3.67648 13.6569 5.01963 15 6.67648 15Z" stroke="white" stroke-width="2" stroke-linecap="round" stroke-linejoin="round"/>
<path id="Vector_3" d="M18.6765 22C20.3333 22 21.6765 20.6569 21.6765 19C21.6765 17.3431 20.3333 16 18.6765 16C17.0196 16 15.6765 17.3431 15.6765 19C15.6765 20.6569 17.0196 22 18.6765 22Z" stroke="white" stroke-width="2" stroke-linecap="round" stroke-linejoin="round"/>
<path id="Vector_4" d="M9.26648 13.51L16.0965 17.49" stroke="white" stroke-width="2" stroke-linecap="round" stroke-linejoin="round"/>
<path id="Vector_5" d="M16.0865 6.51001L9.26648 10.49" stroke="white" stroke-width="2" stroke-linecap="round" stroke-linejoin="round"/>
</g>
</svg>
