<svg width="14" height="15" viewBox="0 0 14 15" fill="none" xmlns="http://www.w3.org/2000/svg">
<g clip-path="url(#clip0_1_1673)">
<path d="M12.25 6.13486C12.25 10.2182 7 13.7182 7 13.7182C7 13.7182 1.75 10.2182 1.75 6.13486C1.75 4.74247 2.30312 3.40711 3.28769 2.42255C4.27226 1.43798 5.60761 0.884857 7 0.884857C8.39239 0.884857 9.72774 1.43798 10.7123 2.42255C11.6969 3.40711 12.25 4.74247 12.25 6.13486Z" fill="#B0B1BC" stroke="#B0B1BC" stroke-width="1.5" stroke-linecap="round" stroke-linejoin="round"/>
<path d="M7 7.88486C7.9665 7.88486 8.75 7.10136 8.75 6.13486C8.75 5.16836 7.9665 4.38486 7 4.38486C6.0335 4.38486 5.25 5.16836 5.25 6.13486C5.25 7.10136 6.0335 7.88486 7 7.88486Z" fill="white" stroke="white" stroke-linecap="round" stroke-linejoin="round"/>
</g>
<defs>
<clipPath id="clip0_1_1673">
<rect width="14" height="14" fill="white" transform="translate(0 0.301514)"/>
</clipPath>
</defs>
</svg>
