<svg width="25" height="24" viewBox="0 0 25 24" fill="none" xmlns="http://www.w3.org/2000/svg">
<path d="M12.1623 2.31409C6.84149 2.31409 2.51257 6.643 2.51257 11.9638C2.51257 17.2846 6.84149 21.6135 12.1623 21.6135C17.4831 21.6135 21.812 17.2846 21.812 11.9638C21.812 6.643 17.4831 2.31409 12.1623 2.31409ZM13.6469 16.4175H10.6777C10.4808 16.4175 10.292 16.3393 10.1528 16.2001C10.0136 16.0609 9.93543 15.8721 9.93543 15.6752C9.93543 15.4784 10.0136 15.2896 10.1528 15.1503C10.292 15.0111 10.4808 14.9329 10.6777 14.9329H13.6469C13.8437 14.9329 14.0325 15.0111 14.1717 15.1503C14.3109 15.2896 14.3891 15.4784 14.3891 15.6752C14.3891 15.8721 14.3109 16.0609 14.1717 16.2001C14.0325 16.3393 13.8437 16.4175 13.6469 16.4175ZM15.8737 13.4484H8.45086C8.25399 13.4484 8.06519 13.3702 7.92598 13.231C7.78678 13.0918 7.70857 12.903 7.70857 12.7061C7.70857 12.5092 7.78678 12.3204 7.92598 12.1812C8.06519 12.042 8.25399 11.9638 8.45086 11.9638H15.8737C16.0706 11.9638 16.2594 12.042 16.3986 12.1812C16.5378 12.3204 16.616 12.5092 16.616 12.7061C16.616 12.903 16.5378 13.0918 16.3986 13.231C16.2594 13.3702 16.0706 13.4484 15.8737 13.4484ZM17.3583 10.4792H6.96629C6.76942 10.4792 6.58062 10.401 6.44141 10.2618C6.30221 10.1226 6.224 9.93381 6.224 9.73694C6.224 9.54008 6.30221 9.35127 6.44141 9.21207C6.58062 9.07286 6.76942 8.99466 6.96629 8.99466H17.3583C17.5551 8.99466 17.744 9.07286 17.8832 9.21207C18.0224 9.35127 18.1006 9.54008 18.1006 9.73694C18.1006 9.93381 18.0224 10.1226 17.8832 10.2618C17.744 10.401 17.5551 10.4792 17.3583 10.4792Z" fill="white"/>
</svg>
