<svg width="14" height="16" viewBox="0 0 14 16" fill="none" xmlns="http://www.w3.org/2000/svg">
<path fill-rule="evenodd" clip-rule="evenodd" d="M6.70585 12.5467L2.11282 14.9133C1.7461 15.0926 1.29431 14.9657 1.09214 14.6267V14.6267C1.03365 14.5216 1.0021 14.4052 1 14.2867V3.8C1 1.8 2.45304 1 4.544 1H9.456C11.4832 1 13 1.74667 13 3.66667V14.2867C13 14.4759 12.9201 14.6573 12.7779 14.7911C12.6356 14.9248 12.4427 15 12.2416 15C12.1133 14.9981 11.9872 14.9684 11.873 14.9133L7.25162 12.5467C7.08133 12.4601 6.87614 12.4601 6.70585 12.5467Z" fill="white" stroke="white" stroke-width="1.03448" stroke-linecap="round" stroke-linejoin="round"/>
</svg>
