<svg width="22" height="22" viewBox="0 0 22 22" fill="none" xmlns="http://www.w3.org/2000/svg">
<g id="Iconly/Light/Profile">
<g id="Profile">
<ellipse id="Ellipse_736" cx="10.6141" cy="6.67149" rx="4.37986" ry="4.37986" stroke="#807A7A" stroke-width="1.5" stroke-linecap="round" stroke-linejoin="round"/>
<path id="Path_33945" fill-rule="evenodd" clip-rule="evenodd" d="M3.6667 17.1428C3.66553 16.8349 3.73439 16.5308 3.86807 16.2535C4.2876 15.4144 5.47067 14.9697 6.45236 14.7683C7.16036 14.6172 7.87813 14.5163 8.60034 14.4663C9.93746 14.3488 11.2823 14.3488 12.6194 14.4663C13.3416 14.5169 14.0593 14.6178 14.7674 14.7683C15.7491 14.9697 16.9321 15.3724 17.3517 16.2535C17.6205 16.8188 17.6205 17.4752 17.3517 18.0406C16.9321 18.9216 15.7491 19.3244 14.7674 19.5174C14.0602 19.6747 13.3422 19.7785 12.6194 19.8278C11.5311 19.9201 10.4377 19.9369 9.3471 19.8782C9.09538 19.8782 8.85206 19.8782 8.60034 19.8278C7.88027 19.7791 7.16498 19.6753 6.46075 19.5174C5.47067 19.3244 4.29599 18.9216 3.86807 18.0406C3.73507 17.7601 3.66628 17.4534 3.6667 17.1428Z" stroke="#807A7A" stroke-width="1.5" stroke-linecap="round" stroke-linejoin="round"/>
</g>
</g>
</svg>
