<svg width="27" height="26" viewBox="0 0 27 26" fill="none" xmlns="http://www.w3.org/2000/svg">
<g id="Group 18559">
<g id="super g">
<path id="Shape" d="M13.3779 5.02428C15.2406 4.99562 17.0421 5.68958 18.4042 6.96053L22.0729 3.37303C19.7191 1.16746 16.6033 -0.041957 13.3779 -0.00196875C10.968 -0.00252561 8.60541 0.667327 6.55441 1.93268C4.5034 3.19803 2.84482 5.00899 1.76416 7.16303L5.96791 10.4268C6.48192 8.86385 7.47358 7.5017 8.80303 6.53242C10.1325 5.56314 11.7327 5.03563 13.3779 5.02428Z" fill="#E43E2B"/>
<path id="Shape_2" d="M25.8576 13.2871C25.8729 12.3935 25.7805 11.5012 25.5826 10.6296H13.3776V15.4546H20.5426C20.4066 16.3006 20.101 17.1103 19.6441 17.8351C19.1872 18.5598 18.5884 19.1847 17.8838 19.6721L21.9863 22.8496C23.2649 21.6152 24.2703 20.1264 24.9378 18.4793C25.6052 16.8322 25.9199 15.0634 25.8613 13.2871H25.8576Z" fill="#3B7DED"/>
<path id="Shape_3" d="M5.98287 15.5687C5.69864 14.7411 5.55211 13.8725 5.54912 12.9974C5.5543 12.1238 5.69558 11.2563 5.96787 10.4262L1.76412 7.16241C0.852362 8.97259 0.377441 10.9712 0.377441 12.998C0.377441 15.0249 0.852362 17.0235 1.76412 18.8337L5.98287 15.5687Z" fill="#F0B501"/>
<path id="Shape_4" d="M13.3779 25.9978C16.5445 26.0874 19.6251 24.9606 21.9866 22.8491L17.8841 19.6716C16.5539 20.5633 14.9786 21.0178 13.3779 20.9716C11.734 20.9618 10.135 20.4347 8.80763 19.465C7.48026 18.4952 6.49193 17.1321 5.98286 15.5691L1.77911 18.8341C2.85686 20.9872 4.51272 22.7977 6.56126 24.063C8.60979 25.3282 10.9701 25.9982 13.3779 25.9978Z" fill="#2BA24C"/>
</g>
</g>
</svg>
